<svg xmlns="http://www.w3.org/2000/svg" width="64.577" height="64.577" viewBox="0 0 64.577 64.577">
  <g id="ACTIVE_SIDEBAR" data-name="ACTIVE SIDEBAR" transform="translate(-2 -2)">
    <g id="Ellipse" transform="translate(0 0)" fill="rgba(0,0,0,0)" stroke-miterlimit="10">
      <path d="M 34.28853988647461 66.07695770263672 C 29.99689865112305 66.07695770263672 25.83388900756836 65.23653411865234 21.91515922546387 63.57905578613281 C 18.12985992431641 61.97800445556641 14.73020935058594 59.68585586547852 11.81062889099121 56.76628494262695 C 8.891058921813965 53.84671401977539 6.59891939163208 50.44707489013672 4.997859477996826 46.66177368164062 C 3.340379238128662 42.7430534362793 2.499959230422974 38.5800666809082 2.499959230422974 34.28843688964844 C 2.499959230422974 29.9968147277832 3.340379238128662 25.83382415771484 4.997859477996826 21.91510581970215 C 6.598909378051758 18.12982559204102 8.891058921813965 14.73018550872803 11.81062889099121 11.81063461303711 C 14.73020935058594 8.891075134277344 18.12985992431641 6.598935127258301 21.91515922546387 4.997895240783691 C 25.83388900756836 3.340415000915527 29.99689865112305 2.500005006790161 34.28853988647461 2.500005006790161 C 38.58015060424805 2.500005006790161 42.74311828613281 3.340415000915527 46.66183090209961 4.997895240783691 C 50.44709777832031 6.598935127258301 53.84672927856445 8.891075134277344 56.76628875732422 11.81063461303711 C 59.68584060668945 14.73018550872803 61.97797775268555 18.12982559204102 63.57901763916016 21.91510581970215 C 65.23649597167969 25.83382415771484 66.07691192626953 29.9968147277832 66.07691192626953 34.28843688964844 C 66.07691192626953 38.5800666809082 65.23649597167969 42.7430534362793 63.57901763916016 46.66177368164062 C 61.97797775268555 50.44707489013672 59.68584060668945 53.84671401977539 56.76628875732422 56.76628494262695 C 53.84672927856445 59.68585586547852 50.44709777832031 61.97800445556641 46.66183090209961 63.57905578613281 C 42.74311828613281 65.23653411865234 38.58015060424805 66.07695770263672 34.28853988647461 66.07695770263672 Z" stroke="none"/>
      <path d="M 34.28853988647461 3 C 30.06417465209961 3 25.96669769287109 3.827117919921875 22.10992813110352 5.458396911621094 C 18.38422775268555 7.034229278564453 15.03799438476562 9.290386199951172 12.1641845703125 12.1641845703125 C 9.290363311767578 15.03798675537109 7.034194946289062 18.38419723510742 5.458362579345703 22.10988616943359 C 3.827072143554688 25.96664047241211 2.999954223632812 30.0640983581543 2.999954223632812 34.2884407043457 C 2.999954223632812 38.51278686523438 3.827072143554688 42.61025238037109 5.458362579345703 46.46701049804688 C 7.034194946289062 50.19269561767578 9.290363311767578 53.53893280029297 12.1641845703125 56.4127311706543 C 15.03799438476562 59.28654098510742 18.38422775268555 61.54270935058594 22.10992813110352 63.11855316162109 C 25.96670532226562 64.74983215332031 30.06417465209961 65.57695007324219 34.28853988647461 65.57695007324219 C 38.51286315917969 65.57695007324219 42.61030578613281 64.74983215332031 46.46704864501953 63.11855316162109 C 50.19272994995117 61.54270935058594 53.5389404296875 59.28655242919922 56.41272735595703 56.41274261474609 C 59.28652954101562 53.53893280029297 61.54268646240234 50.19269561767578 63.1185188293457 46.46701049804688 C 64.74978637695312 42.61025238037109 65.576904296875 38.51278686523438 65.576904296875 34.2884407043457 C 65.576904296875 30.0640983581543 64.74978637695312 25.96664047241211 63.1185188293457 22.10988616943359 C 61.54268646240234 18.38419723510742 59.28652954101562 15.03798675537109 56.41272735595703 12.16417694091797 C 53.5389404296875 9.290374755859375 50.19272994995117 7.034229278564453 46.46704864501953 5.458385467529297 C 42.61030578613281 3.827117919921875 38.51287460327148 3 34.28853988647461 3 M 34.28853988647461 2 C 52.120849609375 2 66.576904296875 16.4560546875 66.576904296875 34.2884407043457 C 66.576904296875 52.12083053588867 52.120849609375 66.57695007324219 34.28853988647461 66.57695007324219 C 16.45608520507812 66.57695007324219 1.999954223632812 52.12083053588867 1.999954223632812 34.2884407043457 C 1.999954223632812 16.4560546875 16.45608520507812 2 34.28853988647461 2 Z" stroke="none" fill="#fff"/>
    </g>
    <path id="Rectangle_" data-name="Rectangle " d="M1,2H26.225V3.682H1Z" transform="translate(21.18 21.862)" fill="#fff"/>
    <path id="Rectangle_2" data-name="Rectangle  " d="M1,1H12.772V2.682H1Z" transform="translate(27.907 27.907)" fill="#fff"/>
    <path id="Rectangle_3" data-name="Rectangle  " d="M1,2H26.225V3.682H1Z" transform="translate(21.18 31.952)" fill="#fff"/>
    <path id="Rectangle_4" data-name="Rectangle   " d="M1,2H12.772V3.682H1Z" transform="translate(27.907 36.997)" fill="#fff"/>
    <path id="Rectangle_5" data-name="Rectangle   " d="M1,1H26.225V2.682H1Z" transform="translate(21.18 43.042)" fill="#fff"/>
  </g>
</svg>
