<svg xmlns="http://www.w3.org/2000/svg" width="17.919" height="17.919" viewBox="0 0 17.919 17.919">
  <g id="business-plan" transform="translate(0)">
    <path id="Path_15" data-name="Path 15" d="M2.626,288.86A2.628,2.628,0,0,0,0,291.476a7.289,7.289,0,0,0,2.254,5.039.525.525,0,0,0,.742,0,7.289,7.289,0,0,0,2.254-5.039,2.628,2.628,0,0,0-2.625-2.616Zm1.356,4.031a6.574,6.574,0,0,1-1.356,2.483,6.574,6.574,0,0,1-1.356-2.483,5.034,5.034,0,0,1-.22-1.386c0-.007,0-.013,0-.02a1.575,1.575,0,1,1,3.15,0c0,.007,0,.011,0,.018a5.028,5.028,0,0,1-.219,1.388Z" transform="translate(0 -278.75)" fill="#9a9a9a"/>
    <circle id="Ellipse_1" data-name="Ellipse 1" cx="0.525" cy="0.525" r="0.525" transform="translate(2.101 12.209)" fill="#9a9a9a"/>
    <path id="Path_16" data-name="Path 16" d="M340.759,1.98l.822-1.15a.525.525,0,0,0-.427-.83h-4.2a.525.525,0,0,0-.525.525v5.7h-.4a.525.525,0,0,0,0,1.05h1.851a.525.525,0,0,0,0-1.05h-.4V3.867h3.676a.525.525,0,0,0,.414-.847Zm-1.069.336.39.5h-2.6V1.05h2.655l-.456.638A.525.525,0,0,0,339.689,2.316Z" transform="translate(-323.76)" fill="#9a9a9a"/>
    <path id="Path_17" data-name="Path 17" d="M73.158,33.75a3.134,3.134,0,0,0-2.969-2.143H66.046a1.574,1.574,0,0,0-2.977,0,2.081,2.081,0,0,1-2-2.077V28.408a2.081,2.081,0,0,1,2.078-2.079h2.246a1.574,1.574,0,0,0,2.969,0h.759a.525.525,0,0,0,0-1.05h-.759a1.574,1.574,0,0,0-2.969,0H63.148a3.132,3.132,0,0,0-3.128,3.128v1.119a3.132,3.132,0,0,0,3.056,3.128,1.575,1.575,0,0,0,2.96,0h4.152a2.083,2.083,0,0,1,1.893,1.22,1.574,1.574,0,0,0,0,2.81,2.083,2.083,0,0,1-1.893,1.22H68.363a1.575,1.575,0,0,0-2.969,0h-1.3a.525.525,0,0,0,0,1.05h1.3a1.575,1.575,0,0,0,2.969,0h1.826a3.134,3.134,0,0,0,2.969-2.143,1.575,1.575,0,0,0,0-3.063Zm-6.28-8.47a.525.525,0,1,1-.525.525.526.526,0,0,1,.525-.525Zm-2.322,7.363a.525.525,0,1,1,.525-.525A.526.526,0,0,1,64.557,32.643Zm2.322,6.313a.525.525,0,1,1,.525-.525A.526.526,0,0,1,66.879,38.956Zm5.914-3.15a.525.525,0,1,1,.525-.525A.526.526,0,0,1,72.792,35.806Z" transform="translate(-57.919 -23.382)" fill="#9a9a9a"/>
  </g>
</svg>
