<svg id="collaborate" xmlns="http://www.w3.org/2000/svg" width="17.919" height="17.919" viewBox="0 0 17.919 17.919">
  <path id="Path_18" data-name="Path 18" d="M80.2,62.135a2.1,2.1,0,1,0-4.2,0,2.1,2.1,0,0,0,4.2,0Zm-2.1,1.05a1.051,1.051,0,0,1-1.05-1.05,1.051,1.051,0,1,1,2.1,0A1.051,1.051,0,0,1,78.1,63.185Z" transform="translate(-73.34 -57.9)" fill="#9a9a9a"/>
  <path id="Path_19" data-name="Path 19" d="M4.76,9.485A4.742,4.742,0,0,0,4.76,0a4.742,4.742,0,1,0,0,9.485Zm-1.57-1.4a2.1,2.1,0,0,1,3.135,0,3.652,3.652,0,0,1-1.565.351A3.717,3.717,0,0,1,3.19,8.089ZM4.76,1.05A3.7,3.7,0,0,1,7.206,7.5a3.151,3.151,0,0,0-4.9.012A3.652,3.652,0,0,1,1.05,4.76,3.714,3.714,0,0,1,4.76,1.05Z" fill="#9a9a9a"/>
  <path id="Path_20" data-name="Path 20" d="M320.2,303.1a2.1,2.1,0,1,0-2.1,2.1A2.1,2.1,0,0,0,320.2,303.1Zm-2.1,1.05a1.05,1.05,0,1,1,1.05-1.05A1.051,1.051,0,0,1,318.1,304.15Z" transform="translate(-304.941 -290.466)" fill="#9a9a9a"/>
  <path id="Path_21" data-name="Path 21" d="M245.725,241a4.742,4.742,0,0,0,0,9.484,4.742,4.742,0,1,0,0-9.484Zm-1.565,8.081a2.041,2.041,0,0,1,3.135,0,3.688,3.688,0,0,1-1.57.349A3.624,3.624,0,0,1,244.16,249.081Zm4.019-.576a3.1,3.1,0,0,0-4.9-.012,3.717,3.717,0,0,1-1.231-2.768,3.692,3.692,0,1,1,6.128,2.78Z" transform="translate(-232.565 -232.565)" fill="#9a9a9a"/>
  <path id="Path_22" data-name="Path 22" d="M22.865,282.1V281.8l.679.679.742-.742-1.946-1.946-1.946,1.946.742.742.679-.679v.308a4.748,4.748,0,0,0,4.725,4.76h1.575v-1.05H26.54A3.7,3.7,0,0,1,22.865,282.1Z" transform="translate(-19.68 -269.995)" fill="#9a9a9a"/>
  <path id="Path_23" data-name="Path 23" d="M291.25,34.76v.308l-.679-.679-.742.742,1.946,1.946,1.946-1.946-.742-.742-.679.679V34.76A4.748,4.748,0,0,0,287.575,30H286v1.05h1.575A3.7,3.7,0,0,1,291.25,34.76Z" transform="translate(-275.99 -28.95)" fill="#9a9a9a"/>
</svg>
