<svg xmlns="http://www.w3.org/2000/svg" width="17.959" height="17.959" viewBox="0 0 17.959 17.959">
  <g id="dashboard" transform="translate(0 0)">
    <path id="Path_8" data-name="Path 8" d="M6.922,5.987H1.309A1.311,1.311,0,0,1,0,4.677V1.31A1.311,1.311,0,0,1,1.309,0H6.922A1.311,1.311,0,0,1,8.231,1.31V4.677A1.311,1.311,0,0,1,6.922,5.987ZM1.309,1.123a.187.187,0,0,0-.187.187V4.677a.187.187,0,0,0,.187.187H6.922a.187.187,0,0,0,.187-.187V1.31a.187.187,0,0,0-.187-.187Zm0,0" fill="#9a9a9a"/>
    <path id="Path_9" data-name="Path 9" d="M6.922,223.808H1.309A1.311,1.311,0,0,1,0,222.5v-7.857a1.311,1.311,0,0,1,1.309-1.31H6.922a1.311,1.311,0,0,1,1.31,1.31V222.5A1.311,1.311,0,0,1,6.922,223.808Zm-5.612-9.354a.187.187,0,0,0-.187.187V222.5a.187.187,0,0,0,.187.187H6.922a.187.187,0,0,0,.187-.187v-7.857a.187.187,0,0,0-.187-.187Zm0,0" transform="translate(0 -205.849)" fill="#9a9a9a"/>
    <path id="Path_10" data-name="Path 10" d="M284.254,347.319h-5.612a1.311,1.311,0,0,1-1.31-1.31v-3.367a1.311,1.311,0,0,1,1.31-1.31h5.612a1.311,1.311,0,0,1,1.31,1.31v3.367A1.311,1.311,0,0,1,284.254,347.319Zm-5.612-4.864a.187.187,0,0,0-.187.187v3.367a.187.187,0,0,0,.187.187h5.612a.187.187,0,0,0,.187-.187v-3.367a.187.187,0,0,0-.187-.187Zm0,0" transform="translate(-267.604 -329.359)" fill="#9a9a9a"/>
    <path id="Path_11" data-name="Path 11" d="M284.254,10.476h-5.612a1.311,1.311,0,0,1-1.31-1.31V1.31A1.311,1.311,0,0,1,278.642,0h5.612a1.311,1.311,0,0,1,1.31,1.309V9.167A1.311,1.311,0,0,1,284.254,10.476Zm-5.612-9.354a.187.187,0,0,0-.187.187V9.167a.187.187,0,0,0,.187.187h5.612a.187.187,0,0,0,.187-.187V1.31a.187.187,0,0,0-.187-.187Zm0,0" transform="translate(-267.604)" fill="#9a9a9a"/>
  </g>
</svg>
