<svg xmlns="http://www.w3.org/2000/svg" width="18.573" height="16.252" viewBox="0 0 18.573 16.252">
  <g id="download" transform="translate(0 -3)">
    <path id="Path_12" data-name="Path 12" d="M17.256,21.287a.576.576,0,0,1-.41-.17L13.17,17.44a.58.58,0,0,1,.41-.991h1.741V12.967A.969.969,0,0,1,16.289,12h1.935a.969.969,0,0,1,.967.967V16.45h1.741a.58.58,0,0,1,.41.991l-3.676,3.676A.576.576,0,0,1,17.256,21.287Z" transform="translate(-2.939 -2.035)" fill="#9a9a9a"/>
    <path id="Path_13" data-name="Path 13" d="M16.252,3H2.322A2.328,2.328,0,0,0,0,5.322v9.287A2.328,2.328,0,0,0,2.322,16.93H9.573L9.14,16.5a2.064,2.064,0,0,1-.588-1.114H2.322a.776.776,0,0,1-.774-.774V5.322a.776.776,0,0,1,.774-.774h13.93a.776.776,0,0,1,.774.774V9.114a2.55,2.55,0,0,1,.774,1.819v1.935h.193a2.064,2.064,0,0,1,.58.085V5.322A2.328,2.328,0,0,0,16.252,3Z" transform="translate(0 0)" fill="#9a9a9a"/>
    <path id="Path_14" data-name="Path 14" d="M5.724,8H1.08a.581.581,0,0,0-.58.58v5.03a.581.581,0,0,0,.58.58H5.724a2.13,2.13,0,0,0,2.128-2.128V10.128A2.13,2.13,0,0,0,5.724,8Zm-.967,4.643A1.548,1.548,0,1,1,6.3,11.1,1.547,1.547,0,0,1,4.756,12.643Z" transform="translate(-0.113 -1.131)" fill="#9a9a9a"/>
  </g>
</svg>
