<svg xmlns="http://www.w3.org/2000/svg" width="386.556" height="253.184" viewBox="0 0 386.556 253.184">
  <g id="Group_62" data-name="Group 62" transform="translate(-65.62 -55.734)">
    <g id="Background_Complete" data-name="Background Complete" transform="translate(65.62 55.734)">
      <g id="Group_36" data-name="Group 36" transform="translate(294.012 28.35)">
        <path id="Path_30" data-name="Path 30" d="M622.821,131.977l-6.043,29.262-3.887-3.792-6.619,4.718-5.056-6.277-11.344,8.246-9.688-16.209-10.812,6.332-4.286-5.912-13.728,7.735-4.131-8.842,9.622-46.605,51.589,10.651Z" transform="translate(-537.147 -100.634)" fill="#ebebeb"/>
        <path id="Path_31" data-name="Path 31" d="M642.123,117.5l14.383,20.69L638.614,134.5Z" transform="translate(-570.831 -106.852)" fill="#dbdbdb"/>
        <path id="Path_32" data-name="Path 32" d="M609.608,197.708l-8.862,42.933L531.262,226.3l8.8-42.591,4.131,8.842,13.728-7.735,4.286,5.912,10.812-6.332L582.7,200.6l11.344-8.246,5.056,6.277,6.619-4.718Z" transform="translate(-531.262 -131.254)" fill="#ebebeb"/>
      </g>
      <g id="Group_38" data-name="Group 38" transform="translate(196.466)">
        <path id="Path_33" data-name="Path 33" d="M453.212,145.508,382.4,149.89l-5.625-90.9,52.579-3.254,19.306,16.192Z" transform="translate(-376.774 -55.734)" fill="#ebebeb"/>
        <path id="Path_34" data-name="Path 34" d="M460.045,55.734l19.306,16.192-18.234,1.128Z" transform="translate(-407.467 -55.734)" fill="#dbdbdb"/>
        <g id="Group_37" data-name="Group 37" transform="translate(23.807 21.769)">
          <path id="Path_35" data-name="Path 35" d="M423.62,129.6l-.274-2.05c-.714-4.25.45-9,4.143-13.976,3.329-4.4,5.136-7.6,4.936-11.16-.226-4.04-2.911-6.59-7.905-6.39a14.1,14.1,0,0,0-7.861,2.9l-2.18-4.883c2.507-2.047,6.951-3.567,11.148-3.8,9.108-.51,13.541,4.882,13.878,10.9.3,5.386-2.49,9.435-6.039,14.162-3.254,4.313-4.326,7.869-3.862,11.895l.194,2.055ZM422.5,140.787a4.69,4.69,0,0,1,4.472-5.255c2.772-.155,4.788,1.8,4.952,4.728a4.723,4.723,0,1,1-9.424.527Z" transform="translate(-414.478 -90.211)" fill="#dbdbdb"/>
        </g>
      </g>
      <g id="Group_39" data-name="Group 39" transform="translate(28.967 21.737)">
        <path id="Path_36" data-name="Path 36" d="M134.849,126.228,127.723,123l-.988,2.182a1.86,1.86,0,0,1-1.624,1.082,10.807,10.807,0,0,0-1.165.114,1.858,1.858,0,0,1-1.8-.745l-1.4-1.947-6.363,4.559,1.395,1.947a1.86,1.86,0,0,1,.127,1.943,10.9,10.9,0,0,0-.483,1.066,1.858,1.858,0,0,1-1.546,1.19l-2.384.234.768,7.787,2.392-.238a1.863,1.863,0,0,1,1.746.872c.1.162.211.32.323.477s.228.31.347.459a1.856,1.856,0,0,1,.265,1.925l-1,2.2,7.125,3.232.993-2.187a1.859,1.859,0,0,1,1.626-1.08,11.039,11.039,0,0,0,1.16-.112,1.857,1.857,0,0,1,1.8.745l1.4,1.947,6.363-4.558-1.4-1.948a1.86,1.86,0,0,1-.128-1.942,10.818,10.818,0,0,0,.48-1.063,1.86,1.86,0,0,1,1.546-1.191l2.389-.237-.768-7.787-2.391.236a1.857,1.857,0,0,1-1.74-.871q-.156-.242-.326-.48t-.347-.46a1.862,1.862,0,0,1-.265-1.934Zm-4.042,7.2a6.41,6.41,0,1,1-8.943-1.481A6.4,6.4,0,0,1,130.807,133.431Z" transform="translate(-111.497 -102.263)" fill="#ebebeb"/>
        <path id="Path_37" data-name="Path 37" d="M654.181,291.713l-4.748,2.74.839,1.453a1.3,1.3,0,0,1-.046,1.366,7.593,7.593,0,0,0-.41.71,1.3,1.3,0,0,1-1.159.72H646.98v5.484h1.678a1.3,1.3,0,0,1,1.159.72,7.593,7.593,0,0,0,.41.71,1.3,1.3,0,0,1,.046,1.366l-.839,1.453,4.748,2.74.84-1.46a1.3,1.3,0,0,1,1.21-.638c.134.007.268.01.4.01s.27,0,.4-.01a1.3,1.3,0,0,1,1.2.635l.846,1.464,4.748-2.74-.84-1.457a1.3,1.3,0,0,1,.048-1.366,7.66,7.66,0,0,0,.409-.707,1.3,1.3,0,0,1,1.158-.72h1.678V298.7H664.61a1.3,1.3,0,0,1-1.158-.719,7.487,7.487,0,0,0-.409-.707A1.3,1.3,0,0,1,663,295.91l.84-1.457-4.748-2.74-.841,1.458a1.3,1.3,0,0,1-1.206.636c-.134-.007-.27-.01-.406-.01s-.27,0-.4.01a1.307,1.307,0,0,1-1.21-.638Zm2.454,5.241a4.49,4.49,0,1,1-4.492,4.488A4.487,4.487,0,0,1,656.634,296.954Z" transform="translate(-308.869 -164.45)" fill="#ebebeb"/>
        <path id="Path_38" data-name="Path 38" d="M167.661,90.793l-4.354,3.329,1.02,1.333a1.3,1.3,0,0,1,.131,1.361,7.587,7.587,0,0,0-.316.757,1.3,1.3,0,0,1-1.055.864l-1.664.217.708,5.437,1.664-.217a1.3,1.3,0,0,1,1.241.565,7.591,7.591,0,0,0,.5.652,1.3,1.3,0,0,1,.222,1.349l-.645,1.549,5.061,2.1.645-1.556a1.3,1.3,0,0,1,1.117-.789q.2-.016.4-.042t.4-.062a1.3,1.3,0,0,1,1.276.474l1.027,1.342,4.355-3.329-1.022-1.337a1.3,1.3,0,0,1-.129-1.361,7.441,7.441,0,0,0,.314-.754,1.3,1.3,0,0,1,1.056-.863l1.664-.217-.708-5.437-1.664.217a1.3,1.3,0,0,1-1.241-.564,7.518,7.518,0,0,0-.5-.648,1.3,1.3,0,0,1-.224-1.349l.645-1.554-5.061-2.1-.646,1.554a1.3,1.3,0,0,1-1.114.787c-.134.01-.269.025-.4.042s-.267.038-.4.062a1.305,1.305,0,0,1-1.282-.477Zm3.109,4.881a4.49,4.49,0,1,1-3.876,5.03A4.487,4.487,0,0,1,170.77,95.674Z" transform="translate(-129.899 -90.16)" fill="#ebebeb"/>
      </g>
      <g id="Group_45" data-name="Group 45" transform="translate(0 88.525)">
        <g id="Group_40" data-name="Group 40" transform="translate(14.481)">
          <path id="Path_39" data-name="Path 39" d="M112.836,272.24a172.741,172.741,0,0,0-.251-18.333,233.471,233.471,0,0,0-5.743-37.35c-1.6-6.912-3.573-13.707-5.628-20.5-.062-.2-.389-.147-.332.067,6.355,23.927,11.568,48.621,11.209,73.494-.1,6.961-.906,13.8-1.567,20.715-.018.185.287.259.329.069A103.939,103.939,0,0,0,112.836,272.24Z" transform="translate(-93.095 -195.935)" fill="#ebebeb"/>
          <path id="Path_40" data-name="Path 40" d="M96.34,196.242s-9.627,24.434-7.472,30.177,6.6,6.969,6.6,6.969-5.89,8.409-1.774,16.3,13.261,7.514,13.868,16.456C107.561,266.141,108.071,228.749,96.34,196.242Z" transform="translate(-88.554 -196.048)" fill="#ebebeb"/>
          <path id="Path_41" data-name="Path 41" d="M110.236,253.707a.189.189,0,0,0-.009-.128,223.8,223.8,0,0,0-9.338-49.154c-.015-.047-.092-.032-.079.017q2.86,10.721,5.054,21.559a10.63,10.63,0,0,0-4.595-2.562.026.026,0,0,0-.018.049,12.164,12.164,0,0,1,4.744,3.17q.422,2.123.818,4.251c-2.151-2.4-5.135-3.6-8.12-4.731a.035.035,0,0,0-.023.066c3.109,1.266,6.206,2.9,8.313,5.576q1.1,6.082,1.933,12.206a11.64,11.64,0,0,0-5.741-3.29c-.067-.016-.1.083-.036.1a12.126,12.126,0,0,1,5.822,3.729.158.158,0,0,0,.036.027q.289,2.154.544,4.313a14.825,14.825,0,0,0-4.023-2.427c-.039-.016-.06.045-.021.061a13.837,13.837,0,0,1,4.03,2.667c.016.016.034.014.051.02.16,1.369.32,2.737.458,4.109a19.559,19.559,0,0,0-8.165-5.83c-.063-.024-.1.072-.035.1a21.274,21.274,0,0,1,8.047,6.192.179.179,0,0,0,.2.064q.312,3.154.549,6.319c0,.028.05.032.048,0Q110.5,256.945,110.236,253.707Z" transform="translate(-92.275 -199.054)" fill="#fff"/>
          <path id="Path_42" data-name="Path 42" d="M101.351,229.656a12.038,12.038,0,0,0-5.784-1.8c-.048,0-.052.066-.005.073a22.908,22.908,0,0,1,5.719,1.868C101.364,229.829,101.423,229.705,101.351,229.656Z" transform="translate(-91.125 -207.699)" fill="#fff"/>
          <path id="Path_43" data-name="Path 43" d="M104.042,270.812a12.178,12.178,0,0,0-4.342-1.484c-.053-.009-.057.073-.006.082a16.27,16.27,0,0,1,4.294,1.506C104.049,270.945,104.1,270.846,104.042,270.812Z" transform="translate(-92.647 -222.986)" fill="#fff"/>
        </g>
        <g id="Group_41" data-name="Group 41" transform="translate(34.739 30.25)">
          <path id="Path_44" data-name="Path 44" d="M145.428,244.64a65.41,65.41,0,0,0-11.143,9.74,40.007,40.007,0,0,0-7.814,13.251,99.072,99.072,0,0,0-5.821,31.694,76.979,76.979,0,0,0,1.716,17.824.169.169,0,0,0,.333-.062,99.969,99.969,0,0,1,.175-31.157c1.655-10.108,4.251-21.105,10.677-29.32,3.5-4.474,7.861-7.992,12.173-11.629C145.951,244.79,145.661,244.476,145.428,244.64Z" transform="translate(-120.638 -244.12)" fill="#ebebeb"/>
          <path id="Path_45" data-name="Path 45" d="M122.9,291.771a59.9,59.9,0,0,1,8.122-10.382c4.816-4.814,8.872-8.237,9.5-11.421s-4.824-5.529-4.824-5.529,6.665,1.2,8.488-1.6,2.7-19,2.7-19-12.124,8.656-17.773,20.79S122.9,291.771,122.9,291.771Z" transform="translate(-121.472 -243.843)" fill="#ebebeb"/>
          <path id="Path_46" data-name="Path 46" d="M142.661,250.384c-5.1,5.01-10.235,10.349-13.239,16.932a64.986,64.986,0,0,0-2.678,6.982s0,.008,0,.011c-.155.479-.311.957-.458,1.439a.181.181,0,0,0-.025.078,137.421,137.421,0,0,0-3.444,14.966c-.006.032.042.049.049.016.523-2.528,1.1-5.08,1.743-7.624a.179.179,0,0,0,.072-.014,10.606,10.606,0,0,1,3.182-.808c.073-.006.067-.133-.007-.129a11.933,11.933,0,0,0-3.147.574c.587-2.294,1.226-4.582,1.943-6.838a33.842,33.842,0,0,1,7.191-.94c.025,0,.029-.037,0-.039a27.187,27.187,0,0,0-7.071.6c.125-.387.255-.772.385-1.157a36.4,36.4,0,0,1,4.785-.811c.029,0,.027-.052,0-.052a23.234,23.234,0,0,0-4.685.569c.66-1.951,1.373-3.876,2.163-5.75a34.839,34.839,0,0,1,2.289-4.445,29.266,29.266,0,0,1,3.881-.692c.037,0,.033-.062,0-.064a10.466,10.466,0,0,0-3.629.359c.638-1.03,1.308-2.039,2.025-3.016h0c2.719-.6,5.475-1.161,8.256-.638.048.009.066-.072.018-.085a17.384,17.384,0,0,0-7.91.227c.287-.382.582-.76.878-1.135a18.037,18.037,0,0,1,5.08-.8.028.028,0,0,0,.005-.056,13.257,13.257,0,0,0-4.737.421c2.248-2.793,4.731-5.416,7.185-8.009C142.87,250.336,142.782,250.266,142.661,250.384Z" transform="translate(-121.439 -246.231)" fill="#fff"/>
          <path id="Path_47" data-name="Path 47" d="M152.585,267.837a11.081,11.081,0,0,0-2.411-.084.087.087,0,0,0,.009.172c.8.023,1.6-.036,2.394.008A.048.048,0,0,0,152.585,267.837Z" transform="translate(-131.499 -252.642)" fill="#fff"/>
          <path id="Path_48" data-name="Path 48" d="M138.022,292.8a10.924,10.924,0,0,0-3.737.75c-.03.011-.013.06.018.053,1.234-.294,2.482-.413,3.729-.619A.093.093,0,0,0,138.022,292.8Z" transform="translate(-125.662 -261.886)" fill="#fff"/>
          <path id="Path_49" data-name="Path 49" d="M135.122,284.2a7.928,7.928,0,0,0-1.586.143.048.048,0,0,0,.005.095,7.959,7.959,0,0,0,1.589-.075A.083.083,0,0,0,135.122,284.2Z" transform="translate(-125.378 -258.715)" fill="#fff"/>
        </g>
        <g id="Group_42" data-name="Group 42" transform="translate(0 47.685)">
          <path id="Path_50" data-name="Path 50" d="M66.455,271.886a55.078,55.078,0,0,1,11.268,5.307,33.673,33.673,0,0,1,9.387,8.919,83.367,83.367,0,0,1,12.037,24.3,64.819,64.819,0,0,1,2.731,14.822.143.143,0,0,1-.284.026,84.165,84.165,0,0,0-7.343-25.174c-3.676-7.8-8.319-16.1-15.418-21.26-3.866-2.811-8.209-4.651-12.54-6.6C66.067,272.128,66.228,271.808,66.455,271.886Z" transform="translate(-65.828 -271.61)" fill="#ebebeb"/>
          <path id="Path_51" data-name="Path 51" d="M96.11,304.7a50.458,50.458,0,0,0-8.972-6.524c-5.01-2.783-9.083-4.615-10.326-7.047s2.626-5.59,2.626-5.59-5.117,2.509-7.239.667-6.579-14.748-6.579-14.748,11.812,4.2,19.189,12.717S96.11,304.7,96.11,304.7Z" transform="translate(-65.62 -271.456)" fill="#ebebeb"/>
          <path id="Path_52" data-name="Path 52" d="M98.575,303.693c-5.908-11.089-13.791-21.121-24.594-27.742a0,0,0,0,0-.005.007,54.269,54.269,0,0,1,7.907,6.187,12.521,12.521,0,0,0-6.351,1.341.037.037,0,0,0,.032.066,17.4,17.4,0,0,1,6.534-1.1.132.132,0,0,0,.074-.028q.575.546,1.136,1.106a20.089,20.089,0,0,0-3.394.45.024.024,0,0,0,.009.047,17.337,17.337,0,0,1,3.585-.3,74.185,74.185,0,0,1,5.572,6.326,5.666,5.666,0,0,0-2.373.172.046.046,0,0,0,.017.09,12.685,12.685,0,0,1,2.533-.035c.323.411.65.82.967,1.238a22.916,22.916,0,0,0-7.17.7.028.028,0,0,0,.011.055,28.867,28.867,0,0,1,7.364-.478c.3.4.587.811.882,1.215a15.549,15.549,0,0,0-4.268.489c-.054.013-.039.1.016.085a16.322,16.322,0,0,1,4.418-.344c1.271,1.751,2.488,3.54,3.658,5.352a3.986,3.986,0,0,0-1.873.112.026.026,0,0,0,.01.052,8.156,8.156,0,0,1,2.027.1q1.578,2.457,3.043,4.956C98.426,303.945,98.653,303.84,98.575,303.693Z" transform="translate(-68.699 -273.112)" fill="#fff"/>
          <path id="Path_53" data-name="Path 53" d="M96.365,305.3a9.164,9.164,0,0,0-3.432.42c-.032.01-.024.057.009.051a26.547,26.547,0,0,1,3.413-.35A.061.061,0,0,0,96.365,305.3Z" transform="translate(-75.68 -283.922)" fill="#fff"/>
          <path id="Path_54" data-name="Path 54" d="M81.115,283.9a5.89,5.89,0,0,0-1.582.092c-.062.009-.042.1.018.093.52-.056,1.034-.036,1.555-.051A.067.067,0,0,0,81.115,283.9Z" transform="translate(-70.734 -276.036)" fill="#fff"/>
        </g>
        <g id="Group_44" data-name="Group 44" transform="translate(19.062 80.13)">
          <g id="Group_43" data-name="Group 43" transform="translate(0 2.477)">
            <path id="Path_55" data-name="Path 55" d="M122.474,361.755H95.81l3.8-27.85.972-7.141H117.7l.972,7.141Z" transform="translate(-95.81 -326.764)" fill="#dbdbdb"/>
            <path id="Path_56" data-name="Path 56" d="M120.891,333.9h-19.06l.972-7.141H119.92Z" transform="translate(-98.029 -326.764)" fill="#c7c7c7"/>
          </g>
          <rect id="Rectangle_47" data-name="Rectangle 47" width="22.012" height="6.048" transform="translate(2.326)" fill="#dbdbdb"/>
        </g>
      </g>
    </g>
    <g id="Floor" transform="translate(67.732 261.856)">
      <line id="Line_1" data-name="Line 1" x2="383.944" fill="none" stroke="#263238" stroke-linecap="round" stroke-linejoin="round" stroke-width="1"/>
    </g>
    <g id="Shadow" transform="translate(79.914 269.24)">
      <g id="Group_46" data-name="Group 46">
        <ellipse id="Ellipse_16" data-name="Ellipse 16" cx="181.053" cy="19.839" rx="181.053" ry="19.839" fill="#ebebeb"/>
      </g>
    </g>
    <g id="Folder" transform="translate(167.633 119.248)">
      <g id="Group_52" data-name="Group 52">
        <g id="Group_49" data-name="Group 49" transform="translate(28.069)">
          <g id="Group_47" data-name="Group 47">
            <path id="Path_57" data-name="Path 57" d="M464.016,339.959H271.638L299.456,182.2H491.833Z" transform="translate(-271.638 -165.862)" fill="#27ae61"/>
            <path id="Path_58" data-name="Path 58" d="M381.535,156.325h-62.96l-2.881,16.338h67.379Z" transform="translate(-287.877 -156.325)" fill="#27ae61"/>
          </g>
          <g id="Group_48" data-name="Group 48" opacity="0.1">
            <path id="Path_59" data-name="Path 59" d="M464.016,339.959H271.638L299.456,182.2H491.833Z" transform="translate(-271.638 -165.862)"/>
            <path id="Path_60" data-name="Path 60" d="M381.535,156.325h-62.96l-2.881,16.338h67.379Z" transform="translate(-287.877 -156.325)"/>
          </g>
        </g>
        <g id="Group_50" data-name="Group 50" transform="translate(35.452 1.17)">
          <line id="Line_2" data-name="Line 2" y1="5.495" transform="translate(16.522)" fill="none" stroke="#263238" stroke-miterlimit="10" stroke-width="1"/>
          <line id="Line_3" data-name="Line 3" x1="2.747" y1="4.759" transform="translate(8.18 2.354)" fill="none" stroke="#263238" stroke-miterlimit="10" stroke-width="1"/>
          <line id="Line_4" data-name="Line 4" x1="4.759" y1="2.747" transform="translate(2.132 8.564)" fill="none" stroke="#263238" stroke-miterlimit="10" stroke-width="1"/>
          <line id="Line_5" data-name="Line 5" x1="5.495" transform="translate(0 16.966)" fill="none" stroke="#263238" stroke-miterlimit="10" stroke-width="1"/>
          <line id="Line_6" data-name="Line 6" x1="4.759" y2="2.747" transform="translate(2.354 22.56)" fill="none" stroke="#263238" stroke-miterlimit="10" stroke-width="1"/>
          <line id="Line_7" data-name="Line 7" x1="2.747" y2="4.759" transform="translate(8.564 26.597)" fill="none" stroke="#263238" stroke-miterlimit="10" stroke-width="1"/>
          <line id="Line_8" data-name="Line 8" y2="5.495" transform="translate(16.966 27.993)" fill="none" stroke="#263238" stroke-miterlimit="10" stroke-width="1"/>
          <line id="Line_9" data-name="Line 9" x2="2.747" y2="4.759" transform="translate(22.56 26.375)" fill="none" stroke="#263238" stroke-miterlimit="10" stroke-width="1"/>
          <line id="Line_10" data-name="Line 10" x2="4.759" y2="2.747" transform="translate(26.596 22.176)" fill="none" stroke="#263238" stroke-miterlimit="10" stroke-width="1"/>
          <line id="Line_11" data-name="Line 11" x2="5.495" transform="translate(27.993 16.522)" fill="none" stroke="#263238" stroke-miterlimit="10" stroke-width="1"/>
          <line id="Line_12" data-name="Line 12" y1="2.747" x2="4.759" transform="translate(26.375 8.18)" fill="none" stroke="#263238" stroke-miterlimit="10" stroke-width="1"/>
          <line id="Line_13" data-name="Line 13" y1="4.759" x2="2.747" transform="translate(22.176 2.132)" fill="none" stroke="#263238" stroke-miterlimit="10" stroke-width="1"/>
        </g>
        <path id="Path_61" data-name="Path 61" d="M447.349,343.3H254.556L227.184,191.27H419.976Z" transform="translate(-227.184 -169.205)" fill="#27ae61"/>
        <g id="Group_51" data-name="Group 51" transform="translate(58.793 98.977)">
          <circle id="Ellipse_17" data-name="Ellipse 17" cx="8.013" cy="8.013" r="8.013" fill="#263238"/>
          <circle id="Ellipse_18" data-name="Ellipse 18" cx="8.013" cy="8.013" r="8.013" transform="translate(63.347 0)" fill="#263238"/>
          <path id="Path_62" data-name="Path 62" d="M387.058,334.381l-.439-.839c-.04-.076-4.18-7.728-12.51-7.728-7.6,0-9.448,7.205-9.524,7.511l-.225.918-1.837-.444.221-.919c.021-.09,2.257-8.961,11.365-8.961,9.495,0,14,8.386,14.187,8.742l.44.839Z" transform="translate(-335.861 -317.075)" fill="#263238"/>
        </g>
      </g>
    </g>
    <g id="Fly" transform="translate(375.004 73.436)">
      <g id="Group_58" data-name="Group 58" transform="translate(0 0)">
        <path id="Path_63" data-name="Path 63" d="M555.607,240.783c11.194-2.4,21.305-10.766,22.16-20.743,1.678-19.574-22.16-30.386-19.7-53.005,2.349-21.575,24.979-23.115,34.052-20.133,10.02,3.294,6.587,12.925-2.486,11.682-15.728-2.154-25.615-19.254-18.144-38.65,7.084-18.394,27.59-22.246,27.59-22.246" transform="translate(-555.607 -88.9)" fill="none" stroke="#263238" stroke-miterlimit="10" stroke-width="1" stroke-dasharray="4"/>
        <g id="Group_57" data-name="Group 57" transform="translate(37.331)">
          <path id="Path_64" data-name="Path 64" d="M634.154,90.491c-1.611-4.991-12.4-3.2-10.29,3.322S635.765,95.482,634.154,90.491Z" transform="translate(-617.996 -85.191)" fill="#263238"/>
          <g id="Group_54" data-name="Group 54">
            <path id="Path_65" data-name="Path 65" d="M614.731,87.058c.08-2.188,3.125-3.872,7.429-3.1a24.135,24.135,0,0,1,8.357,3.675,24.046,24.046,0,0,1-8.6,3.063C617.563,91.16,614.65,89.257,614.731,87.058Z" transform="translate(-614.729 -83.77)" fill="#ebebeb"/>
            <g id="Group_53" data-name="Group 53" transform="translate(2.401 1.35)">
              <path id="Path_66" data-name="Path 66" d="M631.919,89.608c-2.235.016-4.466-.059-6.7-.128-2.23-.1-4.461-.184-6.689-.364,2.235-.016,4.467.059,6.7.128C627.461,89.339,629.692,89.428,631.919,89.608Z" transform="translate(-618.532 -87.089)" fill="#263238"/>
              <path id="Path_67" data-name="Path 67" d="M621.583,85.908a17.806,17.806,0,0,1,1.846,1.017,17.513,17.513,0,0,1,1.721,1.217,17.33,17.33,0,0,1-1.847-1.017A17.59,17.59,0,0,1,621.583,85.908Z" transform="translate(-619.657 -85.908)" fill="#263238"/>
              <path id="Path_68" data-name="Path 68" d="M628.682,89.57a19.622,19.622,0,0,1-1.793,1.294,19.218,19.218,0,0,1-1.919,1.1,20.6,20.6,0,0,1,3.712-2.389Z" transform="translate(-620.905 -87.258)" fill="#263238"/>
              <path id="Path_69" data-name="Path 69" d="M631.877,87.618a4.7,4.7,0,0,1,1.633,1.316,4.447,4.447,0,0,1-.891-.566A4.512,4.512,0,0,1,631.877,87.618Z" transform="translate(-623.451 -86.538)" fill="#263238"/>
            </g>
          </g>
          <g id="Group_56" data-name="Group 56" transform="translate(3.575 6.574)">
            <path id="Path_70" data-name="Path 70" d="M620.919,103.886c1.345,1.728,4.8,1.313,7.837-1.834a24.122,24.122,0,0,0,4.629-7.869,24.048,24.048,0,0,0-8.771,2.548C620.817,98.9,619.567,102.149,620.919,103.886Z" transform="translate(-620.391 -94.182)" fill="#ebebeb"/>
            <g id="Group_55" data-name="Group 55" transform="translate(2.423)">
              <path id="Path_71" data-name="Path 71" d="M634.8,94.182c-1.822,1.294-3.588,2.66-5.358,4.021-1.753,1.382-3.511,2.759-5.213,4.207,1.822-1.294,3.588-2.66,5.358-4.02C631.34,97.007,633.1,95.63,634.8,94.182Z" transform="translate(-624.228 -94.182)" fill="#263238"/>
              <path id="Path_72" data-name="Path 72" d="M628.579,105.757a17.81,17.81,0,0,0,.9-1.9,17.577,17.577,0,0,0,.685-1.993,17.442,17.442,0,0,0-.9,1.9A17.71,17.71,0,0,0,628.579,105.757Z" transform="translate(-625.832 -97.012)" fill="#263238"/>
              <path id="Path_73" data-name="Path 73" d="M631.381,99.625a20.664,20.664,0,0,0-4.409.232,19.272,19.272,0,0,0,2.211,0A19.569,19.569,0,0,0,631.381,99.625Z" transform="translate(-625.239 -96.176)" fill="#263238"/>
              <path id="Path_74" data-name="Path 74" d="M635.93,99.444a4.473,4.473,0,0,0,.391-.98,4.4,4.4,0,0,0,.164-1.042,4.412,4.412,0,0,0-.392.98A4.478,4.478,0,0,0,635.93,99.444Z" transform="translate(-628.541 -95.376)" fill="#263238"/>
            </g>
          </g>
          <path id="Path_75" data-name="Path 75" d="M638.875,90.008a1.892,1.892,0,1,1,1.219-2.382A1.892,1.892,0,0,1,638.875,90.008Z" transform="translate(-622.717 -84.708)" fill="#455a64"/>
          <path id="Path_76" data-name="Path 76" d="M640.716,95.711a1.892,1.892,0,1,1,1.219-2.382A1.892,1.892,0,0,1,640.716,95.711Z" transform="translate(-623.396 -86.81)" fill="#455a64"/>
        </g>
      </g>
    </g>
    <g id="Speech_Bubble" data-name="Speech Bubble" transform="translate(187.951 63.213)">
      <g id="Group_61" data-name="Group 61">
        <g id="Group_59" data-name="Group 59">
          <path id="Path_77" data-name="Path 77" d="M294.368,85.176a15.733,15.733,0,0,1-26.293,9.954L260.2,96.286l3.939-6.806a15.738,15.738,0,1,1,30.227-4.3Z" transform="translate(-259.672 -67.66)" fill="#fff"/>
          <path id="Path_78" data-name="Path 78" d="M294.059,85.1a15.842,15.842,0,0,1-3.176,7.978,14.23,14.23,0,0,1-3.087,3.048,15.513,15.513,0,0,1-3.8,2.113,15.7,15.7,0,0,1-4.237,1.01,15.509,15.509,0,0,1-2.187.042,13.792,13.792,0,0,1-2.178-.227,15.88,15.88,0,0,1-7.786-3.844l.186.057-7.866,1.207-.571.088.289-.5,3.916-6.82-.018.27a15.915,15.915,0,0,1,.969-14.027,16.1,16.1,0,0,1,4.929-5.248,16.01,16.01,0,0,1,13.833-1.863,16.077,16.077,0,0,1,6.069,3.722A15.829,15.829,0,0,1,294.059,85.1Zm0,0a15.568,15.568,0,0,0-17.846-17.031,15.465,15.465,0,0,0-6.5,2.568A16.206,16.206,0,0,0,265,75.768a15.537,15.537,0,0,0-2,6.659,15.727,15.727,0,0,0,1.108,6.856l.057.141-.075.128-3.963,6.793-.282-.415,7.881-1.1.109-.015.078.073a15.5,15.5,0,0,0,7.536,3.881,13.478,13.478,0,0,0,2.135.26,15.23,15.23,0,0,0,2.154,0,15.5,15.5,0,0,0,4.2-.926,14.628,14.628,0,0,0,3.8-2.046,14.135,14.135,0,0,0,3.094-3.012A15.814,15.814,0,0,0,294.059,85.1Z" transform="translate(-259.362 -67.579)" fill="#263238"/>
        </g>
        <g id="Group_60" data-name="Group 60" transform="translate(11.35 6.958)">
          <path id="Path_79" data-name="Path 79" d="M277.338,94.858a1.53,1.53,0,0,1,1.539-1.618,1.62,1.62,0,0,1,0,3.236A1.53,1.53,0,0,1,277.338,94.858Zm.652-3.732L277.625,78.6h2.5l-.365,12.527Z" transform="translate(-277.338 -78.599)" fill="#27ae61"/>
          <path id="Path_80" data-name="Path 80" d="M286.845,94.858a1.53,1.53,0,0,1,1.54-1.618,1.62,1.62,0,0,1,0,3.236A1.53,1.53,0,0,1,286.845,94.858Zm.652-3.732L287.132,78.6h2.505l-.366,12.527Z" transform="translate(-280.842 -78.599)" fill="#27ae61"/>
          <path id="Path_81" data-name="Path 81" d="M296.352,94.858a1.531,1.531,0,0,1,1.54-1.618,1.62,1.62,0,0,1,0,3.236A1.53,1.53,0,0,1,296.352,94.858ZM297,91.126,296.639,78.6h2.505l-.366,12.527Z" transform="translate(-284.346 -78.599)" fill="#27ae61"/>
        </g>
      </g>
    </g>
  </g>
</svg>
