<svg id="withdraw" xmlns="http://www.w3.org/2000/svg" width="17.959" height="17.959" viewBox="0 0 17.959 17.959">
  <path id="Path_1" data-name="Path 1" d="M15.855,0H2.1A2.107,2.107,0,0,0,0,2.1V6.314a2.107,2.107,0,0,0,2.1,2.1h.7v-1.4H2.1a.7.7,0,0,1-.7-.7V2.1a.7.7,0,0,1,.7-.7h13.75a.7.7,0,0,1,.7.7V6.314a.7.7,0,0,1-.7.7h-.7v1.4h.7a2.107,2.107,0,0,0,2.1-2.1V2.1A2.107,2.107,0,0,0,15.855,0Z" fill="#9a9a9a"/>
  <path id="Path_2" data-name="Path 2" d="M92.347,81.4V80H80v1.4h1.263V93.049a2.107,2.107,0,0,0,2.1,2.1H88.98a2.107,2.107,0,0,0,2.1-2.1V81.4ZM82.666,93.049v-.7h.7a.7.7,0,0,1,.7.7v.7h-.7A.7.7,0,0,1,82.666,93.049Zm6.314.7h-.7v-.7a.7.7,0,0,1,.7-.7h.7v.7A.7.7,0,0,1,88.98,93.75Zm.7-2.806h-.7a2.107,2.107,0,0,0-2.1,2.1v.7h-1.4v-.7a2.107,2.107,0,0,0-2.1-2.1h-.7V81.4h7.015Z" transform="translate(-77.194 -77.194)" fill="#9a9a9a"/>
  <path id="Path_3" data-name="Path 3" d="M198.1,204.209a2.1,2.1,0,1,0-2.1-2.1A2.107,2.107,0,0,0,198.1,204.209Zm0-2.806a.7.7,0,1,1-.7.7A.7.7,0,0,1,198.1,201.4Z" transform="translate(-189.125 -192.985)" fill="#9a9a9a"/>
</svg>
